<?xml version="1.0" standalone="no"?><!DOCTYPE svg PUBLIC "-//W3C//DTD SVG 1.1//EN" "http://www.w3.org/Graphics/SVG/1.1/DTD/svg11.dtd"><svg t="1639985274949" class="icon" viewBox="0 0 1024 1024" version="1.1" xmlns="http://www.w3.org/2000/svg" p-id="5345" xmlns:xlink="http://www.w3.org/1999/xlink" width="200" height="200"><defs><style type="text/css"></style></defs><path d="M608.99 258.28a67.15 67.15 0 0 0-33.94-9.23c-24.39 0-46.98 13.17-59.12 34.34-18.77 32.76-7.64 74.98 24.95 93.9 10.34 5.97 22.03 9.23 33.94 9.23 24.39 0 46.98-13.17 59.12-34.34 18.66-32.88 7.53-74.98-24.95-93.9m311.99 54.16L709.47 112.25a39.86 39.86 0 0 0-6.07-4.73c-1.91-1.69-3.93-3.15-6.18-4.39-9.1-5.29-19.89-6.87-29.89-4.51l-281.64 66.99c-14.61 3.49-30.01 15.09-37.54 28.15L88.64 647.39c-11.02 19.25-4.5 44.02 14.72 55.17l376.95 219.66c6.07 3.49 13.04 5.4 20.01 5.4 8.54 0 16.86-2.81 23.6-7.77H899.4c22.14 0 40.12-18.12 40.12-40.42V355.78c0-15.19-7.64-32.98-18.54-43.34m-121.04 94.57l-57.76-192.76L885.7 350.04c0.79 0.9 2.36 4.62 2.47 5.85v512.17H557.63l236.91-414.22c7.53-13.05 9.78-32.3 5.4-46.83m-49.9 21.06l-253.77 443.6-357.39-208.29 253.66-443.49c0.67-1.01 3.82-3.38 5.06-3.83l271.98-64.74 81.15 270.55c0.32 1.13-0.13 5.07-0.69 6.2m-154.42-98.18c-4.27 7.43-12.25 12.05-20.79 12.05-4.16 0-8.31-1.13-11.91-3.26-11.46-6.64-15.39-21.51-8.76-33.1 4.27-7.43 12.25-12.05 20.79-12.05 4.16 0 8.32 1.13 11.91 3.27 11.46 6.63 15.39 21.49 8.76 33.09"  p-id="5346"></path></svg>