<?xml version="1.0" standalone="no"?><!DOCTYPE svg PUBLIC "-//W3C//DTD SVG 1.1//EN" "http://www.w3.org/Graphics/SVG/1.1/DTD/svg11.dtd"><svg t="1639740069274" class="icon" viewBox="0 0 1024 1024" version="1.1" xmlns="http://www.w3.org/2000/svg" p-id="1690" xmlns:xlink="http://www.w3.org/1999/xlink" width="200" height="200"><defs><style type="text/css"></style></defs><path d="M128 85.333333a42.666667 42.666667 0 0 1 42.56 39.466667L170.666667 128l-0.021334 725.333333H896a42.666667 42.666667 0 0 1 42.56 39.466667L938.666667 896a42.666667 42.666667 0 0 1-39.466667 42.56L896 938.666667H128a42.666667 42.666667 0 0 1-42.56-39.466667L85.333333 896V128a42.666667 42.666667 0 0 1 42.666667-42.666667z" fill="#000000" p-id="1691"></path><path d="M298.666667 597.333333a42.666667 42.666667 0 0 1 42.56 39.466667L341.333333 640v85.333333a42.666667 42.666667 0 0 1-85.226666 3.2L256 725.333333v-85.333333a42.666667 42.666667 0 0 1 42.666667-42.666667zM469.333333 426.666667a42.666667 42.666667 0 0 1 42.56 39.466666L512 469.333333v256a42.666667 42.666667 0 0 1-85.226667 3.2L426.666667 725.333333V469.333333a42.666667 42.666667 0 0 1 42.666666-42.666666zM640 85.333333a42.666667 42.666667 0 0 1 42.56 39.466667L682.666667 128v597.333333a42.666667 42.666667 0 0 1-85.226667 3.2L597.333333 725.333333V128a42.666667 42.666667 0 0 1 42.666667-42.666667zM810.666667 256a42.666667 42.666667 0 0 1 42.56 39.466667L853.333333 298.666667v426.666666a42.666667 42.666667 0 0 1-85.226666 3.2L768 725.333333V298.666667a42.666667 42.666667 0 0 1 42.666667-42.666667z" fill="#000000" p-id="1692"></path></svg>