<?xml version="1.0" standalone="no"?><!DOCTYPE svg PUBLIC "-//W3C//DTD SVG 1.1//EN" "http://www.w3.org/Graphics/SVG/1.1/DTD/svg11.dtd"><svg t="1639820054312" class="icon" viewBox="0 0 1024 1024" version="1.1" xmlns="http://www.w3.org/2000/svg" p-id="3716" xmlns:xlink="http://www.w3.org/1999/xlink" width="200" height="200"><defs><style type="text/css"></style></defs><path d="M512 992C246.912 992 32 777.088 32 512S246.912 32 512 32s480 214.912 480 480-214.912 480-480 480z m1.248-929.664c-249.024 0-450.912 201.856-450.912 450.912S264.192 964.16 513.248 964.16c249.024 0 450.912-201.856 450.912-450.912S762.304 62.336 513.248 62.336z m130.912 378.176h135.744v310.304H644.16v-310.304z m29.088 281.216h77.568v-252.128h-77.568v252.128zM440.512 265.984h135.744v484.864h-135.744V265.984z m29.088 455.744h77.568V295.072h-77.568v426.656z m-232.704-164.864h135.744v193.952H236.896v-193.952z m29.088 164.864h77.568v-135.744H265.984v135.744z" p-id="3717"></path></svg>